# xmcd CD database file
#
# Track frame offsets:
#	150
#	28008
#	45099
#	59677
#	83187
#	103958
#	116190
#	140422
#	162486
#	167300
#	186525
#	198060
#
# Disc length: 2804 seconds
#
# Revision: 0
# Processed by: cddbd v1.5.2PL0 Copyright (c) Steve Scherf et al.
# Submitted via: CDex 1.70beta2
#
DISCID=a40af20c
DTITLE=Nina Simone - Nina Simone [CD2)
DYEAR=2007
DGENRE=Jazz
TTITLE0=Ain't Got No (I Got Life)
TTITLE1=Don't Let Me Be Misunderstood
TTITLE2=To Love Somebody
TTITLE3=Ne Me Quitte Pas
TTITLE4=Mississippi Goddamn
TTITLE5=I'll Look Around
TTITLE6=Touching And Caring
TTITLE7=The Assignment Song
TTITLE8=You Took My Teeth
TTITLE9=When I Was In My Prime
TTITLE10=Zungo
TTITLE11=Ain't No Use
EXTD=YEAR: 2007
EXTT0=
EXTT1=
EXTT2=
EXTT3=
EXTT4=
EXTT5=
EXTT6=
EXTT7=
EXTT8=
EXTT9=
EXTT10=
EXTT11=
PLAYORDER=
